# xmcd
#
# Track frame offsets:
#	183
#	19495
#	35565
#	49340
#	60910
#	74123
#	86585
#	103805
#	118348
#	130993
#	138668
#	152655
#
# Disc length: 2315 seconds
#
# Revision: 0
# Processed by: cddbd v1.4PL0 Copyright (c) Steve Scherf et al.
# Submitted via: EasyCDDAExtractor 4.6.9.1
#
DISCID=b709090c
DTITLE=Larry Willams - The Larry Williams Show Featuring Johnny 'Guitar' Watso
DTITLE=n 
DYEAR=1965
DGENRE=Blues
TTITLE0=Slow Down
TTITLE1=Louisana Hannah
TTITLE2=Two Hours Past Midnight
TTITLE3=Baby
TTITLE4=Out of Tears
TTITLE5=For Your Love
TTITLE6=Whole Lotta Shakin Going On
TTITLE7=Hootchy-Koo
TTITLE8=Sweet Little Baby
TTITLE9=Looking Back
TTITLE10=Stormville Groove
TTITLE11=Trust Me
EXTD=
EXTT0=
EXTT1=
EXTT2=
EXTT3=
EXTT4=
EXTT5=
EXTT6=
EXTT7=
EXTT8=
EXTT9=
EXTT10=
EXTT11=
PLAYORDER=
